<svg width="25" height="25" viewBox="0 0 25 25" fill="none" xmlns="http://www.w3.org/2000/svg">
<rect x="0.387695" y="0.30957" width="24" height="24" rx="4" fill="#232323"/>
<path d="M12.417 10.9731L12.4043 9.03394M12.4043 16.8125V14.1511M10.9043 8.66699L8.81641 10.9295M11.3096 13.7112L8.44762 16.8125M14.0626 8.7561L16.0682 10.9294M13.75 13.9731L16.4785 16.9299M5.89355 10.9731H8.89355V13.9731H5.89355V10.9731ZM10.9043 10.9732H13.9043V13.9732H10.9043V10.9732ZM8.22754 5.61572H16.5811V8.61572H8.22754V5.61572ZM15.8816 10.9731H18.8816V13.9731H15.8816V10.9731ZM13.5576 17.7534C13.5576 18.4438 12.998 19.0034 12.3076 19.0034C11.6173 19.0034 11.0576 18.4438 11.0576 17.7534C11.0576 17.0631 11.6173 16.5034 12.3076 16.5034C12.998 16.5034 13.5576 17.0631 13.5576 17.7534ZM18.2998 17.7534C18.2998 18.4438 17.7402 19.0034 17.0498 19.0034C16.3594 19.0034 15.7998 18.4438 15.7998 17.7534C15.7998 17.0631 16.3594 16.5034 17.0498 16.5034C17.7402 16.5034 18.2998 17.0631 18.2998 17.7534ZM9.03418 17.7534C9.03418 18.4438 8.47454 19.0034 7.78418 19.0034C7.09382 19.0034 6.53418 18.4438 6.53418 17.7534C6.53418 17.0631 7.09382 16.5034 7.78418 16.5034C8.47454 16.5034 9.03418 17.0631 9.03418 17.7534Z" stroke="#4CC38A" stroke-miterlimit="10" stroke-linejoin="bevel"/>
</svg>
